<svg xmlns="http://www.w3.org/2000/svg" width="1600" height="900" viewBox="0 0 1600 900" preserveAspectRatio="xMidYMid slice">
  <defs>
    <linearGradient id="g1" x1="0" y1="0" x2="1" y2="1">
      <stop offset="0%" stop-color="#e0f7fa"/>
      <stop offset="100%" stop-color="#cfeefe"/>
    </linearGradient>
    <linearGradient id="g2" x1="0" y1="0" x2="1" y2="0">
      <stop offset="0%" stop-color="#bbdefb" stop-opacity="0.6"/>
      <stop offset="100%" stop-color="#e0f7fa" stop-opacity="0.6"/>
    </linearGradient>
    <pattern id="jc" patternUnits="userSpaceOnUse" width="160" height="160">
      <rect width="160" height="160" fill="none"/>
      <g opacity="0.06" transform="translate(20,20)">
        <rect x="0" y="0" width="100" height="80" rx="6" fill="#ffd600" stroke="#f59e0b"/>
      </g>
    </pattern>
  </defs>
  <rect width="1600" height="900" fill="url(#g1)"/>
  <g fill="url(#g2)" opacity="0.65">
    <path d="M0 400 C200 300 400 500 800 420 C1200 340 1400 460 1600 400 L1600 900 L0 900 Z"/>
    <path d="M0 480 C250 420 500 580 900 500 C1250 420 1500 540 1600 500 L1600 900 L0 900 Z"/>
  </g>
  <rect width="1600" height="900" fill="url(#jc)"/>
  <!-- subtle water droplets -->
  <g fill="#93e8ff" opacity="0.06">
    <circle cx="140" cy="110" r="24" />
    <circle cx="420" cy="80" r="20" />
    <circle cx="980" cy="160" r="28" />
    <circle cx="1300" cy="120" r="18" />
    <circle cx="1500" cy="220" r="22" />
  </g>
</svg>
